<?xml version="1.0" encoding="UTF-8"?>
<svg width="27px" height="40px" viewBox="0 0 27 40" version="1.1" xmlns="http://www.w3.org/2000/svg" xmlns:xlink="http://www.w3.org/1999/xlink">
    <!-- Generator: Sketch 51.2 (57519) - http://www.bohemiancoding.com/sketch -->
    <title>arrow</title>
    <desc>Created with Sketch.</desc>
    <defs></defs>
    <g id="Page-1" stroke="none" stroke-width="1" fill="none" fill-rule="evenodd">
        <g id="Slices-Artboard" transform="translate(-300.000000, -852.000000)" fill="#000000">
            <path d="M306.875758,878.301371 C307.435667,878.892178 307.997184,879.485033 308.470532,879.984248 C308.937445,880.462687 309.360916,880.896355 309.718742,881.262135 C310.089119,881.639326 310.393529,881.942777 310.608161,882.147613 C310.467862,881.797635 309.901839,881.351385 309.850031,880.975364 C310.348157,881.308662 310.452416,881.660688 310.709201,881.735892 C310.704696,881.971161 310.933487,882.236571 311.18255,882.523049 C311.432256,882.810698 311.700304,883.11766 311.812608,883.477294 L311.999887,883.398285 L312.18234,883.754115 C314.151031,885.508978 312.634129,884.083024 314.340885,885.914847 C314.372098,885.944987 314.402668,885.974834 314.428411,886 C315.333274,884.946848 315.707512,884.174323 316.226876,883.745044 C316.148038,883.828442 315.917961,883.908035 316.140315,883.592295 C316.231381,883.739484 316.725967,882.773534 316.898444,882.834693 C317.122729,882.557578 317.878606,881.761057 317.516274,881.82046 C317.690683,881.797635 318.384133,881.107044 318.040786,881.629377 C318.270864,881.38767 318.512204,881.172592 318.644136,880.953417 L318.316879,881.218241 C318.685003,880.790133 319.000032,880.498095 319.272264,880.221273 C319.407414,880.083155 319.531624,879.950011 319.642318,879.809845 C319.697665,879.739615 319.749151,879.667922 319.797419,879.593011 C319.834425,879.530389 319.838286,879.496445 319.854697,879.440554 L319.743359,879.494982 C319.706997,879.512832 319.63363,879.570771 319.580857,879.605886 C319.657442,879.518392 319.730809,879.434409 319.79935,879.355401 C319.854054,879.295705 319.907792,879.242155 319.963139,879.197969 C320.073834,879.109597 320.189677,879.059558 320.327724,879.075945 L320.13433,879.390223 C320.531736,878.946606 320.761814,878.672418 321.000901,878.23319 L320.876048,878.360188 C321.122536,877.756799 323.205783,875.201904 323.373755,874.600856 L323.052612,874.693032 L323.272714,874.233906 C323.230882,874.276336 323.564575,874.756531 323.485093,874.75858 C324.195598,873.964692 327.86847,869.732773 328.620163,869.06325 C328.966727,868.823885 328.892073,869.176496 328.91138,869.196394 C329.18522,868.795207 328.902692,868.928936 329.1923,868.63046 C329.293341,868.565205 329.287227,868.729952 329.26438,868.792281 C329.369282,868.645092 329.530819,868.556427 329.474506,868.497024 C329.271459,868.627534 329.161086,868.425624 328.982817,868.412456 L329.355124,868.027949 L329.449407,868.128026 C329.532106,868.042287 329.349653,867.679142 329.758966,867.334724 C330.397712,866.714655 331.001062,865.973733 331.620823,865.333765 C331.677457,865.39346 331.591862,865.560841 331.505623,865.728514 C331.588644,865.642776 331.692903,865.495293 331.814217,865.449352 C331.553891,865.521337 331.985407,865.11459 331.824192,865.202377 C331.98959,864.518517 332.799205,864.077533 333,863.515111 C332.790839,863.296814 329.654063,859.495051 329.365743,859.27968 C329.489952,859.151218 329.61384,859.023342 329.674336,859.00081 C329.575547,858.984423 329.308465,859.220277 329.222869,859.387658 L329.355767,859.526654 C329.123759,859.885118 329.196805,859.532799 328.927469,859.851173 C328.786205,859.773336 329.016926,859.467251 329.231236,859.206524 C329.012421,859.422187 328.716699,859.579034 328.772046,859.774799 C328.527167,859.948324 328.638827,859.635803 328.353402,859.851759 C328.226296,860.062155 328.133622,860.394575 327.869435,860.548495 C327.260293,860.941196 327.338809,861.451823 326.789519,861.821699 L326.792737,861.740057 C326.570705,861.850376 326.376989,862.247759 326.030747,862.486832 C326.132753,862.421285 326.29075,862.415725 326.144659,862.605637 C325.756906,862.887726 325.626905,863.18035 325.303187,863.356802 L325.210835,863.688929 C324.662832,864.273591 323.373433,865.777675 322.092723,867.271517 C320.813943,868.762141 319.519396,870.262421 318.986195,870.864933 C318.211977,871.731976 316.961193,873.124278 315.717487,874.534723 C315.407607,874.887919 315.097727,875.241993 314.793638,875.589045 L314.69131,875.706972 C314.63178,875.80266 314.613116,875.833385 314.595418,875.86294 C314.52205,875.987891 314.446752,876.127765 314.374994,876.285196 C314.330909,876.200042 314.300661,876.199165 314.271057,876.209114 C314.250463,876.174292 314.230512,876.14737 314.214744,876.106403 C314.233408,876.216429 314.222789,876.358937 314.19769,876.324115 C314.086351,876.338161 314.076376,876.394637 313.962464,876.322944 C313.891027,876.299827 313.774218,876.202969 313.640999,876.07041 C313.218493,875.628256 312.724551,875.110898 312.233183,874.596759 C311.039676,873.328529 309.880923,872.061177 309.473863,871.560206 C308.810339,871.20818 308.327337,870.484815 307.736859,870.091822 C307.243882,869.640889 304.478127,866.580048 303.818786,866.030209 L303.874777,866.131164 C303.245684,865.695448 303.504722,865.611465 303.152688,865.149998 C303.013032,865.363613 302.456985,865.004564 302.271636,864.845084 C302.030296,864.585527 301.280855,864.137813 300.831641,863.731652 L300.954242,863.661423 C300.486686,863.398939 299.871752,862.689328 299.607565,862.442061 C299.071791,861.819651 298.3674,860.764158 297.457387,860.091417 L297.264637,859.337619 L297.161987,859.287581 C297.161987,859.287581 295.774658,860.656766 293,863.395135 C293.213023,863.669909 293.459511,864.267738 293.740753,864.574993 C295.200376,866.212806 296.57891,867.828672 298.170145,869.38338 C298.573987,869.819097 298.977507,870.253057 299.454717,870.645758 C299.526797,870.804652 300.111805,871.465981 300.728991,872.065859 C301.034367,872.368139 301.343282,872.673638 301.577864,872.906274 C301.810194,873.140958 301.966261,873.304241 301.970122,873.31858 C304.498721,875.848212 306.133933,877.509142 306.875758,878.301371 Z" id="arrow" transform="translate(313.000000, 872.500000) rotate(90.000000) translate(-313.000000, -872.500000) "></path>
        </g>
    </g>
</svg>